# xmcd
#
# Track frame offsets:
#	150
#	12715
#	23908
#	36566
#	50134
#	65563
#	76386
#	88183
#	101428
#	120877
#	135563
#	147649
#	161427
#	174790
#	187297
#	203825
#	212090
#	220271
#	234694
#	247078
#	262033
#	278175
#	290847
#	300051
#	312126
#	323238
#
# Disc length: 4540 seconds
# Revision: 0
# Processed by: cddbd v1.5.2PL0 Copyright (c) Steve Scherf et al.
# Submitted via: dBpowerAMP V12.0
#
DISCID=8d11ba1a
DTITLE=Various Artist - Best of Proverb and Gospel Corner Records 1959-1969
DYEAR=2016
DGENRE=Gospel
TTITLE0=Mighty Mighty Clouds of Joy - Jesus is Real
TTITLE1=World Famous Pilgrim Travelers - When I'm Gone
TTITLE2=Singing Corinthians - Sweet Home
TTITLE3=Singing Corinthians - Lord Hold My Hand
TTITLE4=Might Sons of Joy of Ft Worth, TX - Hold Me in Your Arms
TTITLE5="Big" Paul Foster's L.A. Golden Crowns - A Closer Walk
TTITLE6=Singing Corinthians - Prayer Changes Things
TTITLE7=Brother Henderson's Spiritual Lambs - I Made Up My Mind
TTITLE8=Brother Henderson, Religious D.J. of Los Angeles, CA - Eleven-Twenty Two Nineteen Sixty Three
TTITLE9=Vocal-Aires of Birmingham, Ala - Jacob's Ladder
TTITLE10=Singing Corinthians - Shoes
TTITLE11=Singing Corinthians - The Cross
TTITLE12=Melvin Boyd and Ohio Wonders - Lord, You're So Good to Me
TTITLE13=Los Angeles All Stars - I'm Living a Saved Life Now
TTITLE14=Pilgrim Travelers - Peace in the Valley
TTITLE15=Nu-Lite Gospel Singers of K.C., MO - Lot's Wife
TTITLE16=Chambers Brothers of Los Angeles, CA - Just a Little More Faith
TTITLE17=Helen Henderson - He's a Light
TTITLE18=Nu-Lite Gospel Singers of K.C., MO - You've Been So Good
TTITLE19=James Wafer (Mr. Pilgrim Travelers) - What a Friend
TTITLE20=James Wafer (Mr. Pilgrim Travelers) - Pilgrim of Sorrow
TTITLE21=Los Angeles Angels - How Great Thou Art
TTITLE22=Singing Corinthians - Wandering Child
TTITLE23=Singing Corinthians - Don't Put Off Today
TTITLE24=Watts Community Choir - Keep On - Keeping On
TTITLE25=Watts Community Choir - He Ain't Heavy
EXTD=
EXTT0=
EXTT1=
EXTT2=
EXTT3=
EXTT4=
EXTT5=
EXTT6=
EXTT7=
EXTT8=
EXTT9=
EXTT10=
EXTT11=
EXTT12=
EXTT13=
EXTT14=
EXTT15=
EXTT16=
EXTT17=
EXTT18=
EXTT19=
EXTT20=
EXTT21=
EXTT22=
EXTT23=
EXTT24=
EXTT25=
PLAYORDER=
